<svg t="1587631433838" class="icon" viewBox="0 0 1024 1024" version="1.1" xmlns="http://www.w3.org/2000/svg" p-id="19172" width="200" height="200"><path d="M845.8752 116.43904 178.1248 116.43904c-34.22208 0-62.06464 27.82208-62.06464 62.04416L116.06016 845.5168c0 34.2016 27.84256 62.04416 62.06464 62.04416l667.76064 0c34.22208 0 62.06464-27.84256 62.06464-62.04416L907.95008 178.4832C907.93984 144.26112 880.09728 116.43904 845.8752 116.43904zM803.81952 187.06432c14.68416 0 26.58304 11.90912 26.58304 26.60352 0 14.68416-11.89888 26.59328-26.58304 26.59328-14.70464 0-26.60352-11.90912-26.60352-26.59328C777.216 198.97344 789.12512 187.06432 803.81952 187.06432zM708.51584 187.06432c14.70464 0 26.60352 11.90912 26.60352 26.60352 0 14.68416-11.89888 26.59328-26.60352 26.59328-14.68416 0-26.58304-11.90912-26.58304-26.59328C681.94304 198.97344 693.84192 187.06432 708.51584 187.06432zM837.0176 836.64896 186.9824 836.64896 186.9824 306.26816l650.0352 0L837.0176 836.64896zM353.00352 670.8224l103.34208-103.35232L353.00352 464.11776c-15.37024-15.37024-15.37024-40.2944 0-55.6544s40.27392-15.36 55.64416 0L512 511.81568 615.36256 408.4736c15.37024-15.36 40.27392-15.36 55.64416 0s15.37024 40.28416 0 55.6544L567.66464 567.47008 670.99648 670.8224c15.37024 15.37024 15.37024 40.2944 0 55.6544-7.68 7.68-17.75616 11.53024-27.82208 11.53024-10.07616 0-20.14208-3.85024-27.82208-11.53024L512 623.12448 408.63744 726.46656c-7.68 7.68-17.73568 11.53024-27.82208 11.53024-10.05568 0-20.14208-3.85024-27.82208-11.53024C337.63328 711.10656 337.63328 686.19264 353.00352 670.8224z" p-id="19173"></path></svg>