<svg t="1599730968007" class="icon" viewBox="0 0 1024 1024" version="1.1" xmlns="http://www.w3.org/2000/svg" p-id="3134" width="24" height="24"><path d="M428.8 991.488V32.256C428.8 14.3872 414.7712 0 397.056 0H210.944C193.2032 0 179.2 14.4128 179.2 32.256v959.232C179.2 1009.3056 193.2288 1024 210.944 1024h186.112c17.7152 0 31.744-14.4128 31.744-32.512zM813.056 0h-186.112c-17.4336 0-31.744 14.4128-31.744 32.256v959.232c0 17.8432 14.0288 32.512 31.744 32.512h186.112c17.4336 0 31.744-14.4128 31.744-32.512V32.256C844.8 14.3872 830.7712 0 813.056 0z" p-id="3135"></path></svg>