<svg t="1587638232051" class="icon" viewBox="0 0 1024 1024" version="1.1" xmlns="http://www.w3.org/2000/svg" p-id="4601" width="200" height="200"><path d="M1002.666667 768H938.666667V213.333333a42.666667 42.666667 0 0 0-42.666667-42.666666H128a42.666667 42.666667 0 0 0-42.666667 42.666666v554.666667H21.333333a21.333333 21.333333 0 0 0-21.333333 21.333333v21.333334a42.666667 42.666667 0 0 0 42.666667 42.666666h938.666666a42.666667 42.666667 0 0 0 42.666667-42.666666v-21.333334a21.333333 21.333333 0 0 0-21.333333-21.333333z m-241.066667-283.733333l-161.706667 161.706666a21.333333 21.333333 0 0 1-30.293333 0l-8.533333-8.533333a20.906667 20.906667 0 0 1-6.4-15.36v-75.093333c-128 0-256 54.613333-270.933334 124.586666a13.226667 13.226667 0 0 1-13.226666 11.093334h-2.56a10.666667 10.666667 0 0 1-8.533334-3.84 11.946667 11.946667 0 0 1-3.413333-8.533334A304.64 304.64 0 0 1 554.666667 384V316.586667a20.906667 20.906667 0 0 1 6.4-15.36l8.533333-8.533334a21.333333 21.333333 0 0 1 30.293333 0l161.706667 161.706667a20.48 20.48 0 0 1 0 29.866667z" p-id="4602"></path></svg>