<svg t="1587638069098" class="icon" viewBox="0 0 1024 1024" version="1.1" xmlns="http://www.w3.org/2000/svg" p-id="2020" width="200" height="200"><path d="M817.230769 354.461538c-27.569231 0-49.230769 19.692308-49.230769 47.261539v78.769231c0 137.846154-116.184615 252.061538-257.969231 252.061538s-257.969231-114.215385-257.969231-252.061538v-78.769231c0-27.569231-21.661538-47.261538-49.230769-47.261539S157.538462 374.153846 157.538462 401.723077v78.769231c0 175.261538 133.907692 319.015385 305.230769 342.646154v66.953846h-80.738462c-27.569231 0-49.230769 19.692308-49.230769 47.261538S354.461538 984.615385 382.030769 984.615385h257.969231c27.569231 0 49.230769-19.692308 49.230769-47.261539s-21.661538-47.261538-49.230769-47.261538h-80.738462v-66.953846C732.553846 799.507692 866.461538 655.753846 866.461538 480.492308v-78.769231c0-27.569231-21.661538-47.261538-49.230769-47.261539zM512 638.030769c86.646154 0 157.538462-70.892308 157.538462-157.538461V194.953846C669.538462 108.307692 600.615385 39.384615 513.969231 39.384615h-3.938462C423.384615 39.384615 354.461538 108.307692 354.461538 194.953846v285.538462c0 86.646154 70.892308 157.538462 157.538462 157.538461z" p-id="2021"></path></svg>